<?xml version="1.0" standalone="no"?>
<!DOCTYPE svg PUBLIC "-//W3C//DTD SVG 20010904//EN"
 "http://www.w3.org/TR/2001/REC-SVG-20010904/DTD/svg10.dtd">
<svg version="1.0" xmlns="http://www.w3.org/2000/svg"
 width="722.000000pt" height="722.000000pt" viewBox="0 0 722.000000 722.000000"
 preserveAspectRatio="xMidYMid meet">
<metadata>
Created by potrace 1.11, written by Peter Selinger 2001-2013
</metadata>
<g transform="translate(0.000000,722.000000) scale(0.100000,-0.100000)"
fill="#000000" stroke="none">
<path d="M3369 7206 c-3 -3 -23 -6 -46 -7 l-41 -3 -25 -85 c-42 -143 -225
-745 -232 -764 -4 -9 -19 -20 -34 -23 -149 -35 -296 -78 -420 -126 -88 -33
-106 -37 -122 -26 -15 11 -515 387 -544 410 -40 31 -115 88 -142 106 l-32 23
-108 -68 c-226 -141 -450 -313 -445 -341 4 -16 164 -464 181 -507 16 -39 39
-101 71 -190 17 -49 36 -102 41 -116 9 -23 6 -31 -16 -55 -87 -93 -234 -292
-310 -419 -12 -19 -18 -20 -300 -11 -99 3 -282 8 -406 11 l-226 6 -23 -48
c-48 -102 -124 -320 -165 -478 -23 -85 -23 -91 -7 -106 23 -22 333 -229 342
-229 5 0 10 -4 12 -8 1 -4 84 -61 183 -127 99 -65 184 -122 189 -126 4 -4 9
-129 10 -278 l3 -270 -171 -114 c-94 -62 -181 -119 -193 -127 -11 -8 -101 -69
-199 -135 -98 -66 -182 -123 -186 -126 -12 -8 75 -332 111 -414 5 -11 28 -69
52 -128 l43 -108 195 6 c108 3 279 8 381 11 102 3 219 6 260 7 86 3 85 4 157
-108 40 -61 158 -222 172 -235 3 -3 23 -26 43 -52 l38 -46 -49 -134 c-148
-402 -262 -720 -259 -722 1 -1 32 -27 68 -57 36 -30 81 -65 99 -79 18 -14 45
-34 59 -46 15 -12 70 -49 122 -84 52 -34 114 -75 138 -91 44 -30 92 -47 92
-33 0 5 17 20 38 34 20 13 46 32 57 42 37 32 597 449 609 454 7 3 68 -16 137
-42 145 -54 263 -91 351 -109 46 -10 53 -24 107 -207 30 -100 62 -208 71 -238
10 -30 25 -82 35 -115 9 -33 21 -69 25 -80 7 -16 18 -55 24 -85 1 -3 12 -40
26 -83 21 -69 26 -77 49 -78 14 0 35 -3 46 -6 30 -8 500 -12 570 -4 l59 6 18
47 c10 26 20 58 22 70 3 13 17 61 31 108 15 47 28 90 29 95 1 6 11 37 21 70
10 33 20 65 21 70 24 100 125 400 136 406 9 5 33 11 54 15 20 3 47 9 58 14 12
4 23 8 26 8 24 0 220 63 333 106 79 30 72 29 89 13 7 -7 47 -37 88 -67 41 -30
77 -57 80 -60 3 -3 34 -27 70 -53 36 -27 72 -53 80 -60 8 -7 44 -34 80 -60 36
-26 72 -53 80 -60 8 -7 51 -39 95 -71 44 -33 82 -63 85 -66 3 -3 16 -13 30
-21 23 -16 28 -15 61 2 94 47 446 296 510 360 17 17 16 21 -21 121 -35 94
-256 705 -265 736 -4 11 20 45 66 91 48 49 202 261 255 351 19 32 24 35 65 33
134 -6 548 -15 703 -17 l179 -1 34 80 c45 104 116 317 148 441 21 78 23 99 13
105 -7 4 -177 118 -377 252 l-364 245 -2 253 c-1 140 -4 260 -6 267 -3 9 135
108 376 269 262 176 379 260 378 272 -12 95 -78 309 -155 503 l-51 128 -166
-5 c-91 -2 -272 -7 -401 -11 -129 -3 -261 -7 -293 -8 l-58 -1 -69 100 c-72
106 -161 225 -222 297 l-38 45 57 154 c31 85 68 188 83 229 15 41 30 82 33 90
4 8 33 89 66 180 33 91 62 172 66 181 8 21 2 27 -165 160 -76 61 -373 259
-388 259 -8 0 -78 -50 -137 -98 -5 -4 -46 -34 -90 -67 -44 -33 -84 -63 -90
-68 -18 -14 -121 -92 -149 -112 -15 -11 -79 -59 -143 -107 -63 -49 -120 -88
-125 -88 -8 0 -151 52 -193 70 -33 15 -175 58 -254 78 -40 10 -77 26 -82 35
-9 15 -87 270 -246 805 -10 33 -22 52 -32 53 -9 1 -27 3 -41 6 -36 6 -556 14
-561 9z m1244 -1637 c102 -28 161 -165 112 -259 -69 -135 -253 -147 -339 -23
-24 35 -29 52 -30 102 0 51 5 67 30 103 51 74 135 103 227 77z m-755 -833
c456 -100 801 -426 911 -859 28 -108 33 -150 36 -281 2 -134 -21 -258 -76
-394 -30 -78 -105 -214 -121 -220 -4 -2 -8 -8 -8 -14 0 -27 -146 -182 -240
-255 -136 -105 -271 -171 -449 -219 -82 -22 -152 -29 -296 -29 -155 0 -212 7
-340 39 -50 13 -195 73 -238 98 -26 15 -50 28 -54 28 -13 0 -139 97 -200 154
-127 118 -225 261 -286 416 -141 359 -103 714 110 1038 59 89 164 202 242 260
20 15 38 30 41 33 3 4 36 25 74 48 127 78 256 129 391 155 44 8 89 17 100 20
47 10 334 -3 403 -18z m-1974 -75 c124 -85 103 -267 -36 -326 -116 -48 -246
22 -267 143 -17 91 42 184 134 213 46 15 124 1 169 -30z m3673 -1792 c87 -54
111 -176 52 -264 -27 -40 -108 -85 -152 -85 -89 0 -175 62 -195 141 -27 106
22 193 128 229 59 20 111 13 167 -21z m-2797 -869 c108 -55 137 -188 63 -288
-33 -45 -78 -65 -148 -68 -205 -9 -276 260 -93 354 55 28 126 29 178 2z"/>
</g>
</svg>
